<svg width="44" height="20" viewBox="0 0 44 20" fill="none" xmlns="http://www.w3.org/2000/svg">
<path d="M32.936 13.11C34.878 13.11 36.453 14.652 36.453 16.555C36.453 18.458 34.878 20 32.936 20C30.994 20 29.42 18.458 29.42 16.555C29.42 14.652 30.994 13.11 32.936 13.11ZM10.979 13.11C12.921 13.11 14.496 14.652 14.496 16.555C14.496 18.458 12.921 20 10.979 20C9.037 20 7.463 18.458 7.463 16.555C7.463 14.652 9.037 13.11 10.979 13.11ZM17.927 8.262V9.69101C17.927 10.407 18.537 10.984 19.275 10.95C19.6062 10.9321 19.9179 10.7878 20.1458 10.5468C20.3737 10.3059 20.5005 9.98667 20.5 9.65501V8.262H28.756L42.239 9.57501C43.195 9.66801 43.915 10.456 43.915 11.389C43.915 14.279 41.789 16.692 38.989 17.208C39.386 13.651 36.531 10.588 32.936 10.588C29.29 10.588 26.432 13.728 26.897 17.311H17.018C17.484 13.723 14.621 10.589 10.979 10.589C7.384 10.589 4.529 13.651 4.927 17.209C2.787 16.811 1.011 15.297 0.316999 13.278H1.459C2.19 13.278 2.779 12.68 2.744 11.956C2.711 11.278 2.115 10.756 1.422 10.756H0V10.505C0 9.231 1.066 8.262 2.306 8.262H17.927ZM22.59 5.90018e-06C25.235 5.90018e-06 27.58 1.55601 28.562 3.96301L29.288 5.74201H20.17L18.413 5.90018e-06H22.59ZM15.725 5.90018e-06L17.483 5.741H6.505L9.862 2.08701C10.4718 1.42777 11.2115 0.901993 12.0345 0.542802C12.8575 0.183611 13.746 -0.00120378 14.644 5.90018e-06H15.726H15.725Z" fill="white" fill-opacity="0.6"/>
</svg>
