<svg width="44" height="24" viewBox="0 0 44 24" fill="none" xmlns="http://www.w3.org/2000/svg">
<path d="M11.001 14.279C13.918 14.279 16.181 16.872 15.763 19.785C15.6417 20.6184 15.3045 21.4055 14.7849 22.0682C14.2653 22.731 13.5813 23.2463 12.801 23.563C11.9032 23.9266 10.9164 24.0099 9.97044 23.802C9.02443 23.594 8.16353 23.1046 7.501 22.398C6.313 21.138 6.266 19.785 6.238 19.785C5.818 16.861 8.095 14.279 11.001 14.279ZM33.001 14.279C36.458 14.279 38.799 17.846 37.411 21.023C36.9882 21.9913 36.2587 22.7937 35.335 23.3065C34.4112 23.8194 33.3444 24.0142 32.299 23.861C31.2742 23.7074 30.3262 23.2279 29.595 22.4937C28.8638 21.7595 28.3884 20.8094 28.239 19.784C27.819 16.869 30.085 14.279 33.001 14.279ZM17.961 8.196V9.658C17.9608 9.83275 17.9961 10.0057 18.0648 10.1664C18.1334 10.3271 18.234 10.4722 18.3605 10.5928C18.4869 10.7134 18.6365 10.8071 18.8003 10.8682C18.964 10.9292 19.1385 10.9564 19.313 10.948C20.006 10.915 20.54 10.317 20.54 9.622V8.196H28.84L41.896 8.912C42.1607 8.92669 42.4145 9.02261 42.6228 9.18669C42.8311 9.35078 42.9837 9.57506 43.06 9.829C43.33 10.724 43.506 11.306 43.623 11.699H42.576C41.882 11.699 41.285 12.233 41.252 12.927C41.2436 13.1014 41.2707 13.2756 41.3316 13.4393C41.3926 13.6029 41.4861 13.7524 41.6065 13.8788C41.7269 14.0052 41.8717 14.1058 42.0322 14.1746C42.1927 14.2434 42.3654 14.2789 42.54 14.279H43.985C43.821 16.504 42.415 18.472 40.385 19.329C40.515 15.117 37.13 11.699 33.001 11.699C28.684 11.699 25.239 15.417 25.643 19.785H18.358C18.788 15.13 14.855 11.254 10.227 11.739V8.196H17.961ZM7.649 8.196V12.504C6.33029 13.1767 5.24364 14.2294 4.5295 15.5261C3.81536 16.8228 3.50655 18.3039 3.643 19.778C2.65801 19.7189 1.73269 19.2862 1.05588 18.5681C0.379069 17.85 0.00177747 16.9008 0.00100136 15.914V14.279H1.461C1.80313 14.279 2.13125 14.1431 2.37317 13.9012C2.61509 13.6592 2.751 13.3311 2.751 12.989C2.751 12.6469 2.61509 12.3188 2.37317 12.0768C2.13125 11.8349 1.80313 11.699 1.461 11.699H0V8.486L0.00300026 8.196H7.649ZM22.635 0C25.285 0 27.635 1.592 28.619 4.055L29.249 5.634C29.2273 5.63279 29.2057 5.63146 29.184 5.63L29.158 5.628L29.124 5.626L29.102 5.624C29.0274 5.62 28.9527 5.618 28.878 5.618L28.78 5.617H28.741L28.605 5.616H28.553L28.227 5.615H20.21L18.527 0.000999451L22.635 0ZM9.003 0L7.881 5.616H0.737001L2.207 0.905999C2.28885 0.643507 2.45242 0.414034 2.67387 0.251053C2.89532 0.0880718 3.16304 0.000111058 3.438 0H9.003ZM15.835 0L17.518 5.615H10.511L11.632 0H15.835Z" fill="white" fill-opacity="0.6"/>
</svg>
