<svg width="44" height="18" viewBox="0 0 44 18" fill="none" xmlns="http://www.w3.org/2000/svg">
<path d="M10.9799 10.8336C12.9209 10.8336 14.4959 12.4376 14.4959 14.4166C14.4959 16.3946 12.9209 17.9986 10.9789 17.9986C9.03693 17.9986 7.46293 16.3946 7.46293 14.4166C7.46293 12.4376 9.03793 10.8336 10.9799 10.8336ZM32.9359 10.8336C34.8779 10.8336 36.4529 12.4376 36.4529 14.4166C36.4529 16.3946 34.8779 17.9986 32.9359 17.9986C30.9939 17.9986 29.4199 16.3946 29.4199 14.4166C29.4199 12.4376 30.9939 10.8336 32.9359 10.8336ZM23.7929 0.383597C23.9112 0.262191 24.0527 0.165703 24.2089 0.099822C24.3651 0.0339408 24.5329 0 24.7024 0C24.872 0 25.0398 0.0339408 25.196 0.099822C25.3522 0.165703 25.4936 0.262191 25.6119 0.383597L29.3269 4.1676C33.7709 4.0526 39.0269 5.3096 43.2909 7.9206C43.6779 8.1576 43.9149 8.5846 43.9149 9.0446C43.9149 12.0506 41.7889 14.5586 38.9889 15.0946C39.3859 11.3966 36.5309 8.2126 32.9359 8.2126C29.2899 8.2126 26.4319 11.4766 26.8969 15.2026H17.2279C17.9879 13.6586 18.2209 13.1766 18.5649 12.4916L18.6469 12.3296C19.0679 11.4946 19.7029 10.2596 21.5299 6.6796C23.2099 6.6566 24.9999 6.2716 26.7769 5.2766L23.7929 2.2366C23.5512 1.98859 23.4159 1.65595 23.4159 1.3096C23.4159 0.963248 23.5512 0.630603 23.7929 0.382597V0.383597ZM16.1129 1.4476C16.7959 1.2476 17.5079 1.6496 17.7049 2.3456L18.4539 4.9976C18.6903 5.83554 18.6021 6.73181 18.2069 7.5076L16.4739 10.9026L16.2579 11.3266C15.1879 9.4366 13.1979 8.2126 10.9789 8.2126C7.38393 8.2126 4.52893 11.3966 4.92693 15.0976C3.09493 14.7506 1.51293 13.5606 0.648928 11.8216C0.540702 11.6035 0.494383 11.3599 0.515013 11.1172C0.535642 10.8746 0.62243 10.6423 0.765928 10.4456L1.72093 9.1426L0.395927 7.8476C-0.355073 7.1126 0.0199267 5.8236 1.03593 5.6166L7.64993 4.2706L7.77993 4.2446C7.87193 4.2256 7.92493 4.2146 7.93693 4.2136C8.25093 4.0676 9.00693 3.6226 9.00693 2.7076C9.00693 1.9736 9.59893 1.3806 10.3229 1.3976C11.0349 1.4136 11.5909 2.0596 11.5789 2.7856C11.5729 3.34059 11.4545 3.8886 11.2309 4.3966C12.834 4.61002 14.4096 4.9942 15.9309 5.5426L15.2309 3.0696C15.1351 2.73757 15.174 2.38118 15.3391 2.07759C15.5041 1.774 15.7822 1.54766 16.1129 1.4476Z" fill="white" fill-opacity="0.6"/>
</svg>
